<svg viewbox="0 0 570 131" xmlns="http://www.w3.org/2000/svg"><g><path d="M39.75 107.625c21.25.0 32.625-10.375 32.625-26.875.0-15.5-11.25-21.375-26-24.75-11.25-2.5-19.125-4.25-19.125-12.125.0-7 5.75-12 14.625-12 5.875.0 11.25 1.25 15.625 3.5v9.75H69.75V27.75c-6.5-3.5-15.625-6.375-28-6.375-20.5.0-31.875 10.5-31.875 26.625.0 15 11 20.625 25.375 23.875C47.75 74.625 55 77 55 85.25c0 7-5.875 11.875-15.125 11.875-6.625.0-12.375-1.375-17.125-3.625V82.75h-13v18.625c6.75 3 16.5 6.25 30 6.25zm83.25.0c25.5.0 41.875-17 41.875-43 0-26.25-15.875-43.25-41.125-43.25-25.75.0-42.5 17.25-42.5 43.25s16.125 43 41.75 43zm.25-11.375c-14.25.0-22.625-10.625-22.625-29.875v-3.5c0-19.375 8.625-30.125 22.875-30.125 14 0 22.375 10.75 22.375 30.125v3.5c0 19.375-8.5 29.875-22.625 29.875zm85.5 11.375c22 0 32-9.75 32-30.25V36.625c0-3.125.625-3.75 2.375-3.75H249.5V23H219.875v9.875h7c1.75.0 2.375.625 2.375 3.75v39.75c0 13.625-5.875 19.75-17.75 19.75-13.375.0-18.75-5.5-18.75-20.5v-39c0-3.125.625-3.75 2.375-3.75h6.25V23h-35.25v9.875h5.625c1.75.0 2.375.625 2.375 3.75v40.25c0 22.875 10 30.75 34.625 30.75zm96.875-42c12-2.75 18.375-9.5 18.375-20C324 30 313.375 23 293.5 23H253.125v9.875h6.25c1.75.0 2.375.75 2.375 3.75v55.75c0 2.875-.625 3.75-2.375 3.75h-6.25V106H288.75V96.125H282.5c-1.75.0-2.375-.875-2.375-3.75v-22.5h5c13.375.0 17 5.75 17.625 16C303.625 97.375 307 106 317.25 106H329.5V96.125h-1c-4.375.0-5.625-1.625-6-7.75-.5-12.375-4.625-19.75-16.875-22.75zm-25.5-4.25V33H288c12.25.0 18 4.625 18 14 0 9.625-6.5 14.375-20.125 14.375zm93.125 46.25c15.375.0 25.375-3.75 32-7.75V75.5H391.125L391 90c-3.5 2.5-8 4.625-16.125 4.625-14.875.0-23-8.875-23-28.25L352 63c0-20.125 7.375-28.625 23-28.625 8.125.0 12.625 2.25 16.125 4.625l.125 14.5h14V29.25c-6.25-4-16.25-7.875-32-7.875-26.5.0-40.75 15.375-40.75 43.625.0 27 15.125 42.625 40.75 42.625zM438 59.125V32.875h22c4.875.0 6 .75 7.625 4.125l1.5 7.25H477.5V23H411v9.875h6.25c1.75.0 2.375.625 2.375 3.75v55.75c0 3.125-.625 3.75-2.375 3.75H411V106h68V84.75h-8.25L469.25 92c-1.75 3.75-2.625 4.125-7.625 4.125H438V68.875h11.5c2.75.0 3.625 1.25 3.625 4.5V77.75h8.125v-27h-8.125V55c0 3.25-.875 4.125-3.625 4.125zm77.75 48.5c21.25.0 32.625-10.375 32.625-26.875.0-15.5-11.25-21.375-26-24.75-11.25-2.5-19.125-4.25-19.125-12.125.0-7 5.75-12 14.625-12 5.875.0 11.25 1.25 15.625 3.5v9.75h12.25V27.75c-6.5-3.5-15.625-6.375-28-6.375-20.5.0-31.875 10.5-31.875 26.625.0 15 11 20.625 25.375 23.875C523.75 74.625 531 77 531 85.25c0 7-5.875 11.875-15.125 11.875-6.625.0-12.375-1.375-17.125-3.625V82.75h-13v18.625c6.75 3 16.5 6.25 30 6.25z"/></g></svg>
